{
  "accessors": [
    {
      "bufferView": 2,
      "componentType": 5126,
      "count": 23872,
      "max": [
        1.0,
        0.5,
        0.02500000037252903
      ],
      "min": [
        -1.0,
        -0.5,
        0.0
      ],
      "type": "VEC3"
    },
    {
      "bufferView": 2,
      "byteOffset": 286464,
      "componentType": 5126,
      "count": 23872,
      "max": [
        0.9993301630020142,
        0.9993305206298828,
        1.0
      ],
      "min": [
        -0.9993290901184082,
        -0.9993306398391724,
        -1.0
      ],
      "type": "VEC3"
    },
    {
      "bufferView": 3,
      "componentType": 5126,
      "count": 23872,
      "max": [
        1.0,
        0.9999999403953552,
        0.9966590404510498,
        1.0
      ],
      "min": [
        -1.0,
        -0.9999228715896606,
        -0.99635910987854,
        -1.0
      ],
      "type": "VEC4"
    },
    {
      "bufferView": 1,
      "componentType": 5126,
      "count": 23872,
      "max": [
        0.9996738433837891,
        0.9177826046943665
      ],
      "min": [
        0.0003261864185333252,
        0.0003261864185333252
      ],
      "type": "VEC2"
    },
    {
      "bufferView": 1,
      "byteOffset": 190976,
      "componentType": 5126,
      "count": 23872,
      "max": [
        0.9996738433837891,
        0.9177826046943665
      ],
      "min": [
        0.0003261864185333252,
        0.0003261864185333252
      ],
      "type": "VEC2"
    },
    {
      "bufferView": 1,
      "byteOffset": 381952,
      "componentType": 5126,
      "count": 23872,
      "max": [
        0.9996738433837891,
        0.9177826046943665
      ],
      "min": [
        0.0003261864185333252,
        0.0003261864185333252
      ],
      "type": "VEC2"
    },
    {
      "bufferView": 0,
      "componentType": 5125,
      "count": 125052,
      "type": "SCALAR"
    }
  ],
  "asset": {
    "extras": {
      "author": "rickmaolly (https://sketchfab.com/rickmaolly)",
      "license": "CC-BY-4.0 (http://creativecommons.org/licenses/by/4.0/)",
      "source": "https://sketchfab.com/3d-models/cork-board-9534ee2ad4344ea6b02b95b61bd4a913",
      "title": "Cork Board"
    },
    "generator": "Sketchfab-14.57.0",
    "version": "2.0"
  },
  "bufferViews": [
    {
      "buffer": 0,
      "byteLength": 500208,
      "name": "floatBufferViews",
      "target": 34963
    },
    {
      "buffer": 0,
      "byteLength": 572928,
      "byteOffset": 500208,
      "byteStride": 8,
      "name": "floatBufferViews",
      "target": 34962
    },
    {
      "buffer": 0,
      "byteLength": 572928,
      "byteOffset": 1073136,
      "byteStride": 12,
      "name": "floatBufferViews",
      "target": 34962
    },
    {
      "buffer": 0,
      "byteLength": 381952,
      "byteOffset": 1646064,
      "byteStride": 16,
      "name": "floatBufferViews",
      "target": 34962
    }
  ],
  "buffers": [
    {
      "byteLength": 2028016,
      "uri": "scene.bin"
    }
  ],
  "images": [
    {
      "uri": "textures/Material_baseColor.png"
    },
    {
      "uri": "textures/Material_metallicRoughness.png"
    },
    {
      "uri": "textures/Material_normal.png"
    }
  ],
  "materials": [
    {
      "doubleSided": true,
      "name": "Material",
      "normalTexture": {
        "index": 2
      },
      "pbrMetallicRoughness": {
        "baseColorTexture": {
          "index": 0
        },
        "metallicRoughnessTexture": {
          "index": 1
        }
      }
    }
  ],
  "meshes": [
    {
      "name": "CorkBoard_Material_0",
      "primitives": [
        {
          "attributes": {
            "NORMAL": 1,
            "POSITION": 0,
            "TANGENT": 2,
            "TEXCOORD_0": 3,
            "TEXCOORD_1": 4,
            "TEXCOORD_2": 5
          },
          "indices": 6,
          "material": 0,
          "mode": 4
        }
      ]
    }
  ],
  "nodes": [
    {
      "children": [
        1
      ],
      "matrix": [
        1.0,
        0.0,
        0.0,
        0.0,
        0.0,
        2.220446049250313e-16,
        -1.0,
        0.0,
        0.0,
        1.0,
        2.220446049250313e-16,
        0.0,
        0.0,
        0.0,
        0.0,
        1.0
      ],
      "name": "Sketchfab_model"
    },
    {
      "children": [
        2
      ],
      "matrix": [
        0.009999999776482582,
        0.0,
        0.0,
        0.0,
        0.0,
        0.0,
        0.009999999776482582,
        0.0,
        0.0,
        -0.009999999776482582,
        0.0,
        0.0,
        0.0,
        0.0,
        0.0,
        1.0
      ],
      "name": "Board.fbx"
    },
    {
      "children": [
        3
      ],
      "name": "RootNode"
    },
    {
      "children": [
        4
      ],
      "matrix": [
        100.0,
        0.0,
        0.0,
        0.0,
        0.0,
        99.9999999999999,
        4.371138828673792e-06,
        0.0,
        0.0,
        -4.371138828673792e-06,
        99.9999999999999,
        0.0,
        0.0,
        0.0,
        0.0,
        1.0
      ],
      "name": "CorkBoard"
    },
    {
      "mesh": 0,
      "name": "CorkBoard_Material_0"
    }
  ],
  "samplers": [
    {
      "magFilter": 9729,
      "minFilter": 9987,
      "wrapS": 10497,
      "wrapT": 10497
    }
  ],
  "scene": 0,
  "scenes": [
    {
      "name": "Sketchfab_Scene",
      "nodes": [
        0
      ]
    }
  ],
  "textures": [
    {
      "sampler": 0,
      "source": 0
    },
    {
      "sampler": 0,
      "source": 1
    },
    {
      "sampler": 0,
      "source": 2
    }
  ]
}
