{
  "accessors": [
    {
      "bufferView": 2,
      "componentType": 5126,
      "count": 4066,
      "max": [
        90.85214233398438,
        96.25972747802734,
        121.66050720214844
      ],
      "min": [
        -89.75084686279297,
        -281.8229675292969,
        -89.50272369384766
      ],
      "type": "VEC3"
    },
    {
      "bufferView": 2,
      "byteOffset": 48792,
      "componentType": 5126,
      "count": 4066,
      "max": [
        1.0,
        1.0,
        1.0
      ],
      "min": [
        -1.0,
        -1.0,
        -1.0
      ],
      "type": "VEC3"
    },
    {
      "bufferView": 3,
      "componentType": 5126,
      "count": 4066,
      "max": [
        1.0,
        0.9691594839096069,
        1.0,
        1.0
      ],
      "min": [
        -1.0,
        -0.9872584342956543,
        -1.0,
        -1.0
      ],
      "type": "VEC4"
    },
    {
      "bufferView": 1,
      "componentType": 5126,
      "count": 4066,
      "max": [
        0.9972164034843445,
        0.9983888864517212
      ],
      "min": [
        -0.0011371374130249023,
        0.004892110824584961
      ],
      "type": "VEC2"
    },
    {
      "bufferView": 1,
      "byteOffset": 32528,
      "componentType": 5126,
      "count": 4066,
      "max": [
        0.9972164034843445,
        0.9983888864517212
      ],
      "min": [
        -0.0011371374130249023,
        0.004892110824584961
      ],
      "type": "VEC2"
    },
    {
      "bufferView": 1,
      "byteOffset": 65056,
      "componentType": 5126,
      "count": 4066,
      "max": [
        0.9972164034843445,
        0.9983888864517212
      ],
      "min": [
        -0.0011371374130249023,
        0.004892110824584961
      ],
      "type": "VEC2"
    },
    {
      "bufferView": 0,
      "componentType": 5125,
      "count": 12924,
      "type": "SCALAR"
    }
  ],
  "asset": {
    "extras": {
      "author": "Lanzaman (https://sketchfab.com/lanzaboy)",
      "license": "CC-BY-4.0 (http://creativecommons.org/licenses/by/4.0/)",
      "source": "https://sketchfab.com/3d-models/canarian-cafe-coffee-grinder-78d7e61da65c4b368074c978e742bdfc",
      "title": "Canarian Cafe - Coffee Grinder"
    },
    "generator": "Sketchfab-12.65.0",
    "version": "2.0"
  },
  "bufferViews": [
    {
      "buffer": 0,
      "byteLength": 51696,
      "name": "floatBufferViews",
      "target": 34963
    },
    {
      "buffer": 0,
      "byteLength": 97584,
      "byteOffset": 51696,
      "byteStride": 8,
      "name": "floatBufferViews",
      "target": 34962
    },
    {
      "buffer": 0,
      "byteLength": 97584,
      "byteOffset": 149280,
      "byteStride": 12,
      "name": "floatBufferViews",
      "target": 34962
    },
    {
      "buffer": 0,
      "byteLength": 65056,
      "byteOffset": 246864,
      "byteStride": 16,
      "name": "floatBufferViews",
      "target": 34962
    }
  ],
  "buffers": [
    {
      "byteLength": 311920,
      "uri": "scene.bin"
    }
  ],
  "images": [
    {
      "uri": "textures/material_baseColor.png"
    },
    {
      "uri": "textures/material_metallicRoughness.png"
    },
    {
      "uri": "textures/material_normal.png"
    }
  ],
  "materials": [
    {
      "alphaMode": "BLEND",
      "doubleSided": true,
      "name": "material",
      "normalTexture": {
        "index": 2
      },
      "pbrMetallicRoughness": {
        "baseColorTexture": {
          "index": 0
        },
        "metallicFactor": 0.7994331035888225,
        "metallicRoughnessTexture": {
          "index": 1
        },
        "roughnessFactor": 0.9627322487806048
      }
    }
  ],
  "meshes": [
    {
      "name": "beans_1_Mat_0",
      "primitives": [
        {
          "attributes": {
            "NORMAL": 1,
            "POSITION": 0,
            "TANGENT": 2,
            "TEXCOORD_0": 3,
            "TEXCOORD_1": 4,
            "TEXCOORD_2": 5
          },
          "indices": 6,
          "material": 0,
          "mode": 4
        }
      ]
    }
  ],
  "nodes": [
    {
      "children": [
        1
      ],
      "matrix": [
        1.0,
        0.0,
        0.0,
        0.0,
        0.0,
        2.220446049250313e-16,
        -1.0,
        0.0,
        0.0,
        1.0,
        2.220446049250313e-16,
        0.0,
        0.0,
        0.0,
        0.0,
        1.0
      ],
      "name": "Sketchfab_model"
    },
    {
      "children": [
        2
      ],
      "matrix": [
        0.009999999776482582,
        0.0,
        0.0,
        0.0,
        0.0,
        0.0,
        0.009999999776482582,
        0.0,
        0.0,
        -0.009999999776482582,
        0.0,
        0.0,
        0.0,
        0.0,
        0.0,
        1.0
      ],
      "name": "8bb0fa24a3d54c208c758086df085e58.fbx"
    },
    {
      "children": [
        3
      ],
      "name": "RootNode"
    },
    {
      "children": [
        4
      ],
      "matrix": [
        1.0,
        0.0,
        0.0,
        0.0,
        0.0,
        1.0,
        0.0,
        0.0,
        0.0,
        0.0,
        1.0,
        0.0,
        -0.5506482124328613,
        181.82296752929688,
        -0.7987682223320007,
        1.0
      ],
      "name": "beans_1"
    },
    {
      "mesh": 0,
      "name": "beans_1_Mat_0"
    }
  ],
  "samplers": [
    {
      "magFilter": 9729,
      "minFilter": 9987,
      "wrapS": 10497,
      "wrapT": 10497
    }
  ],
  "scene": 0,
  "scenes": [
    {
      "name": "Sketchfab_Scene",
      "nodes": [
        0
      ]
    }
  ],
  "textures": [
    {
      "sampler": 0,
      "source": 0
    },
    {
      "sampler": 0,
      "source": 1
    },
    {
      "sampler": 0,
      "source": 2
    }
  ]
}
